<svg width="8" height="8" viewBox="0 0 8 8" fill="none" xmlns="http://www.w3.org/2000/svg">
<rect x="3.93481" y="2.00146" width="1.35695" height="1.35695" rx="0.678475" stroke="white" stroke-width="0.508857"/>
<path d="M1.35725 5.65016L1.94715 5.06026C2.49842 4.509 3.39219 4.509 3.94346 5.06026L4.53335 5.65016M4.53335 5.65016L4.7723 5.41122C5.2125 4.97101 5.93568 5.00381 6.33423 5.48207L6.4743 5.65016M4.53335 5.65016L5.4156 6.53241M0.894123 4.92019C0.734511 4.23974 0.734511 3.53158 0.894123 2.85113C1.11514 1.90892 1.85082 1.17324 2.79303 0.952229C3.47348 0.792617 4.18163 0.792616 4.86208 0.952229C5.80429 1.17324 6.53997 1.90892 6.76099 2.85113C6.9206 3.53158 6.9206 4.23974 6.76099 4.92019C6.53997 5.8624 5.80429 6.59808 4.86208 6.81909C4.18163 6.9787 3.47348 6.9787 2.79303 6.81909C1.85082 6.59808 1.11514 5.8624 0.894123 4.92019Z" stroke="white" stroke-width="0.508857" stroke-linecap="round" stroke-linejoin="round"/>
</svg>
