<svg width="9" height="3" viewBox="0 0 9 3" fill="none" xmlns="http://www.w3.org/2000/svg">
<path d="M1.62165 0.679688C1.14587 0.679688 0.756592 1.06896 0.756592 1.54474C0.756592 2.02052 1.14587 2.4098 1.62165 2.4098C2.09743 2.4098 2.4867 2.02052 2.4867 1.54474C2.4867 1.06896 2.09743 0.679688 1.62165 0.679688Z" fill="white"/>
<path d="M7.67704 0.679688C7.20126 0.679688 6.81199 1.06896 6.81199 1.54474C6.81199 2.02052 7.20126 2.4098 7.67704 2.4098C8.15282 2.4098 8.5421 2.02052 8.5421 1.54474C8.5421 1.06896 8.15282 0.679688 7.67704 0.679688Z" fill="white"/>
<path d="M4.64934 0.679688C4.17356 0.679688 3.78429 1.06896 3.78429 1.54474C3.78429 2.02052 4.17356 2.4098 4.64934 2.4098C5.12513 2.4098 5.5144 2.02052 5.5144 1.54474C5.5144 1.06896 5.12513 0.679688 4.64934 0.679688Z" fill="white"/>
</svg>
