<svg width="7" height="6" viewBox="0 0 7 6" fill="none" xmlns="http://www.w3.org/2000/svg">
<path fill-rule="evenodd" clip-rule="evenodd" d="M2.07353 0.237026C2.23128 0.158662 2.41879 0.166804 2.56866 0.259415C2.71852 0.352282 2.80985 0.515879 2.80985 0.692453V4.7633C2.80985 5.04419 2.58188 5.27216 2.301 5.27216C2.02011 5.27216 1.79214 5.04419 1.79214 4.7633V1.51578L1.511 1.65648C1.25937 1.78191 0.953797 1.68014 0.82811 1.42877C0.702677 1.17714 0.804448 0.871569 1.05582 0.745884L2.07353 0.237026ZM4.33641 1.96459H4.71805C5.62993 1.96459 6.37184 2.7065 6.37184 3.61838C6.37184 4.53025 5.62993 5.27216 4.71805 5.27216H3.82755C3.54667 5.27216 3.31869 5.04419 3.31869 4.7633C3.31869 4.48241 3.54667 4.25445 3.82755 4.25445H4.71805C5.06865 4.25445 5.35412 3.96923 5.35412 3.61838C5.35412 3.26752 5.06865 2.98231 4.71805 2.98231H3.31869V0.183594H5.86298C6.14387 0.183594 6.37184 0.411562 6.37184 0.69245C6.37184 0.973341 6.14387 1.20131 5.86298 1.20131H4.33641V1.96459Z" fill="#F1F1EF"/>
</svg>
