<svg width="8" height="7" viewBox="0 0 8 7" fill="none" xmlns="http://www.w3.org/2000/svg">
<path d="M0.774414 5.86341C0.774414 5.17878 1.27188 4.59562 1.94795 4.48773L2.00885 4.47801C2.55021 4.39161 3.10185 4.39161 3.64322 4.47801L3.70412 4.48773C4.38019 4.59562 4.87765 5.17878 4.87765 5.86341C4.87765 6.15932 4.63777 6.39921 4.34185 6.39921H1.31022C1.0143 6.39921 0.774414 6.15932 0.774414 5.86341Z" stroke="white" stroke-width="0.508857"/>
<path d="M4.02281 2.125C4.02281 2.78596 3.487 3.32178 2.82603 3.32178C2.16507 3.32178 1.62926 2.78596 1.62926 2.125C1.62926 1.46404 2.16507 0.928223 2.82603 0.928223C3.487 0.928223 4.02281 1.46404 4.02281 2.125Z" stroke="white" stroke-width="0.508857"/>
<path d="M4.81128 2.68653C5.47224 2.68653 6.00806 2.15071 6.00806 1.48975C6.00806 0.828785 5.47224 0.292969 4.81128 0.292969M5.62846 5.76396H6.3271C6.62301 5.76396 6.8629 5.52407 6.8629 5.22815C6.8629 4.54352 6.36543 3.96037 5.68936 3.85247V3.85247C5.64883 3.846 5.60777 3.84275 5.56672 3.84275C5.45738 3.84275 5.42343 3.84275 5.23568 3.84275" stroke="white" stroke-width="0.508857" stroke-linecap="round"/>
</svg>
