<svg width="6" height="6" viewBox="0 0 6 6" fill="none" xmlns="http://www.w3.org/2000/svg">
<path fill-rule="evenodd" clip-rule="evenodd" d="M2.61621 0.262695H3.03876C3.27346 0.262695 3.46364 0.452872 3.46364 0.687573V4.92639C3.46364 5.16109 3.27346 5.35126 3.03876 5.35126H2.61621C2.38151 5.35126 2.19133 5.16087 2.19133 4.92639V0.687573C2.19133 0.452872 2.38151 0.262695 2.61621 0.262695ZM4.94689 1.53479H4.52435C4.28965 1.53479 4.09947 1.72496 4.09947 1.95966V4.92638C4.09947 5.16087 4.28965 5.35126 4.52435 5.35126H4.94689C5.18159 5.35126 5.37177 5.16109 5.37177 4.92638V1.95966C5.37177 1.72496 5.18159 1.53479 4.94689 1.53479ZM1.13063 2.59486H0.708081C0.47338 2.59486 0.283203 2.78504 0.283203 3.01974V4.92638C0.283203 5.16087 0.47338 5.35126 0.708081 5.35126H1.13063C1.36533 5.35126 1.5555 5.16109 1.5555 4.92638V3.01974C1.5555 2.78504 1.36533 2.59486 1.13063 2.59486Z" fill="#F1F1EF"/>
</svg>
